<?xml version="1.0" standalone="no"?>
<!DOCTYPE svg PUBLIC "-//W3C//DTD SVG 20010904//EN"
 "http://www.w3.org/TR/2001/REC-SVG-20010904/DTD/svg10.dtd">
<svg version="1.0" xmlns="http://www.w3.org/2000/svg"
 width="768.000000pt" height="300.000000pt" viewBox="0 0 768.000000 300.000000"
 preserveAspectRatio="xMidYMid meet">

<g transform="translate(0.000000,300.000000) scale(0.100000,-0.100000)"
fill="#000000" stroke="none">
<path d="M201 2788 c-69 -36 -85 -65 -89 -163 -4 -74 -2 -84 15 -94 18 -9 20
-5 31 61 13 84 32 115 92 146 44 22 45 22 546 22 331 0 512 -4 531 -11 45 -17
82 -60 98 -113 12 -40 15 -128 15 -465 0 -405 1 -417 20 -429 20 -12 20 -10
20 471 l0 484 -22 33 c-13 18 -36 43 -51 54 -28 21 -38 21 -595 24 l-567 2
-44 -22z"/>
<path d="M1730 2121 l0 -681 160 0 160 0 0 269 0 269 148 4 c186 6 239 24 323
108 46 46 61 69 77 121 76 245 -6 488 -188 562 -52 21 -71 22 -367 25 l-313 3
0 -680z m498 422 c46 -34 63 -75 64 -151 1 -130 -50 -181 -179 -182 l-63 0 0
181 0 182 76 -5 c54 -4 83 -11 102 -25z"/>
<path d="M2742 2123 l3 -678 158 -3 157 -3 0 191 0 191 45 66 44 67 116 -240
c63 -131 119 -246 123 -254 8 -12 41 -15 186 -18 97 -1 176 1 176 5 0 3 -88
176 -195 384 -107 208 -195 381 -195 386 0 4 15 33 33 63 19 30 97 160 175
288 l141 232 -172 0 -173 0 -150 -267 -149 -268 -3 268 -2 267 -160 0 -160 0
2 -677z"/>
<path d="M640 2720 c0 -5 9 -10 20 -10 35 0 105 -76 202 -218 123 -181 198
-257 308 -312 84 -42 201 -90 220 -90 6 0 10 100 10 269 0 393 26 371 -437
371 -209 0 -323 -4 -323 -10z"/>
<path d="M3710 2030 l0 -130 285 0 285 0 0 130 0 130 -285 0 -285 0 0 -130z"/>
</g>
</svg>
