<?xml version="1.0" encoding="utf-8"?>
<!-- Generator: Adobe Illustrator 22.0.1, SVG Export Plug-In . SVG Version: 6.00 Build 0)  -->
<svg version="1.1" id="Layer_1" xmlns="http://www.w3.org/2000/svg" xmlns:xlink="http://www.w3.org/1999/xlink" x="0px" y="0px"
	 viewBox="0 0 811.8 201" style="enable-background:new 0 0 811.8 201;" xml:space="preserve">
<style type="text/css">
	.st0{fill:#00AEEF;}
	.st1{fill:#62BB46;}
	.st2{fill:#FFFFFF;}
</style>
<g>
	<path class="st0" d="M334.2,92c-13.1,0-13-13.5-13-13.5V41.6c0,0-0.1-13.5,13-13.5s13,13.5,13,13.5v36.8
		C347.3,78.5,347.4,92,334.2,92z M334.2,37c-3.4,0-3.3,4.6-3.3,4.6v36.8c0,0-0.2,4.6,3.3,4.6s3.3-4.6,3.3-4.6V41.6
		C337.5,41.6,337.7,37,334.2,37z"/>
	<path class="st0" d="M362.9,28.8c0,0,9.3,0,9.8,0c8.5,0,17.2,4.3,17.2,18.7c0,14.4-8.7,18.8-17.2,18.8v25h-9.8V28.8z M372.7,56.9
		c6.2,0,7.3-2.1,7.3-9.1c0-7-1.2-9.7-7.3-9.7V56.9z"/>
	<path class="st0" d="M403.8,28.8h22.4v9.4h-12.6v16.4h9.1v10h-9.1v17.2h12.6v9.4h-22.4V28.8z"/>
	<path class="st0" d="M451,58.7l-0.8-2.9h-0.5v2.9v32.6h-9V28.8h8.7l9.5,32.6l0.8,2.9h0.5v-2.9V28.8h9v62.5h-8.7L451,58.7z"/>
	<path class="st0" d="M520.6,28.1c11.8-0.3,13.7,9.6,13.7,16.6l-9.6,0.9c0-4.2-0.6-9-3.9-9c-2.5,0.1-3.3,2.6-3.3,6.2
		c0,4.3,3.9,9,7.7,14.2c4.5,6.4,9.1,12.6,9.1,19.3c0,8.3-2.9,15.7-13.6,15.7c-12.6,0-14.2-8.9-14.2-18.2l9.6-0.9
		c0,5.2,0.5,10.6,4.6,10.6c2.9,0,4-3,4-6.9c0-4.2-4.2-9.2-7.9-14.5c-4.6-6.4-9-12.8-9-19.5C507.9,35.9,511.4,28.3,520.6,28.1z"/>
	<path class="st0" d="M560.1,48.8l0.3,0.6h0.2l0.3-0.6l4.9-20h9.6l-10,35.9v26.6h-9.8V64.7l-10-35.9h9.6L560.1,48.8z"/>
	<path class="st0" d="M600.7,28.1c11.8-0.3,13.7,9.6,13.7,16.6l-9.6,0.9c0-4.2-0.6-9-3.9-9c-2.5,0.1-3.3,2.6-3.3,6.2
		c0,4.3,3.9,9,7.7,14.2c4.5,6.4,9.1,12.6,9.1,19.3c0,8.3-2.9,15.7-13.6,15.7c-12.6,0-14.2-8.9-14.2-18.2l9.6-0.9
		c0,5.2,0.5,10.6,4.6,10.6c2.9,0,4-3,4-6.9c0-4.2-4.2-9.2-7.9-14.5c-4.6-6.4-9-12.8-9-19.5C588,35.9,591.5,28.3,600.7,28.1z"/>
	<path class="st0" d="M625.3,38.2v-9.4h28.2v9.4h-9.2v53.1h-9.8V38.2H625.3z"/>
	<path class="st0" d="M666.4,28.8h22.4v9.4h-12.6v16.4h9.1v10h-9.1v17.2h12.6v9.4h-22.4V28.8z"/>
	<path class="st0" d="M719.4,91.3L713.2,52l-0.4-2.6h-0.5V52v39.3h-9.1V28.8h11.9l5.8,28.6l0.5,3.3h0.2l0.5-3.3l5.8-28.6h11.9v62.5
		h-9.1V52v-2.6h-0.5l-0.4,2.6l-6.2,39.3H719.4z"/>
	<path class="st0" d="M768.2,28.1c11.8-0.3,13.7,9.6,13.7,16.6l-9.6,0.9c0-4.2-0.6-9-3.9-9c-2.5,0.1-3.3,2.6-3.3,6.2
		c0,4.3,3.9,9,7.7,14.2c4.5,6.4,9.1,12.6,9.1,19.3c0,8.3-2.9,15.7-13.6,15.7c-12.6,0-14.2-8.9-14.2-18.2l9.6-0.9
		c0,5.2,0.5,10.6,4.6,10.6c2.9,0,4-3,4-6.9c0-4.2-4.2-9.2-7.9-14.5c-4.6-6.4-9-12.8-9-19.5C755.4,35.9,759,28.3,768.2,28.1z"/>
	<path class="st1" d="M321.6,113.4c0,0,8.8,0,9.2,0c8,0,16.2,4.1,16.2,17.6c0,13.5-8.2,17.7-16.2,17.7v23.5h-9.2V113.4z
		 M330.8,139.9c5.8,0,6.9-2,6.9-8.6c0-6.6-1.1-9.1-6.9-9.1V139.9z"/>
	<path class="st1" d="M376.5,146.6h-7.2v25.6h-9.2c0,0,0-58.5,0-58.9h9.2v24.3h7.2v-24.3h9.2v58.9h-9.2V146.6z"/>
	<path class="st1" d="M398.5,172.3l9.5-58.9h11.2l9.5,58.9h-8.9l-1.7-12h-8.9l-1.7,12H398.5z M414.1,132.5l-0.3-1.5h-0.5l-0.3,1.5
		l-2.6,18.6h6.3L414.1,132.5z"/>
	<path class="st1" d="M457.9,172.3l-4.8-24.8h-2.5v24.8h-9.2v-58.9h9.2c10.9,0,15.7,5.9,15.7,17c0,5.8-1.6,11.1-5.1,13.4l5.9,28.5
		H457.9z M450.6,122v17.5c2.6,0,6.8-0.3,6.8-8.7S453.2,122,450.6,122z"/>
	<path class="st1" d="M495.9,172.3l-5.9-37l-0.3-2.5h-0.5v2.5v37h-8.5v-58.9h11.2l5.5,26.9l0.4,3.1h0.2l0.4-3.1l5.5-26.9h11.2v58.9
		h-8.5v-37v-2.5h-0.5l-0.3,2.5l-5.9,37H495.9z"/>
	<path class="st1" d="M527.9,172.3l9.5-58.9h11.2l9.5,58.9h-8.9l-1.7-12h-8.9l-1.7,12H527.9z M543.5,132.5l-0.3-1.5h-0.5l-0.3,1.5
		l-2.6,18.6h6.3L543.5,132.5z"/>
	<path class="st1" d="M594.8,152.1v8.1c0,0,0.1,12.7-12.3,12.7s-12.3-12.7-12.3-12.7v-34.7c0,0-0.1-12.7,12.3-12.7
		s12.3,12.7,12.3,12.7v8.1h-8.6v-8.1c0,0,0.3-4.3-3.5-4.3c-3.2,0-3.2,4.3-3.2,4.3v34.7c0,0,0,4.3,3.2,4.3c3.8,0,3.5-4.3,3.5-4.3
		v-8.1H594.8z"/>
	<path class="st1" d="M620.5,172.9c-12.4,0-12.3-12.7-12.3-12.7v-34.7c0,0-0.1-12.7,12.3-12.7c12.4,0,12.3,12.7,12.3,12.7v34.7
		C632.8,160.2,632.8,172.9,620.5,172.9z M620.5,121.2c-3.2,0-3.1,4.3-3.1,4.3v34.7c0,0-0.2,4.3,3.1,4.3c3.2,0,3.1-4.3,3.1-4.3v-34.7
		C623.6,125.5,623.7,121.2,620.5,121.2z"/>
	<path class="st1" d="M647.5,113.4h9.2v50.9h12.2v8h-21.4V113.4z"/>
	<path class="st1" d="M692.8,172.9c-12.4,0-12.3-12.7-12.3-12.7v-34.7c0,0-0.1-12.7,12.3-12.7c12.4,0,12.3,12.7,12.3,12.7v34.7
		C705.1,160.2,705.2,172.9,692.8,172.9z M692.8,121.2c-3.2,0-3.1,4.3-3.1,4.3v34.7c0,0-0.2,4.3,3.1,4.3c3.2,0,3.1-4.3,3.1-4.3v-34.7
		C695.9,125.5,696.1,121.2,692.8,121.2z"/>
	<path class="st1" d="M734.6,134.5v-9.1c0,0,0.2-4.3-3.1-4.3c-3.2,0-3.1,4.3-3.1,4.3v35.4c0,0-0.2,4.3,3.1,4.3
		c3.2,0,3.1-4.3,3.1-4.3v-10.7h-3.7v-7.3h12.9v29.3h-5.5l-1.1-2.8c-1.7,2-4.3,3.4-7.2,3.4c-11.7,0-10.8-12.7-10.8-12.7v-34.7
		c0,0-0.1-12.7,12.3-12.7c12.4,0,12.3,12.7,12.3,12.7v9.1H734.6z"/>
	<path class="st1" d="M769.8,132.2l0.3,0.6h0.2l0.3-0.6l4.6-18.8h9l-9.4,33.8v25.1h-9.2v-25.1l-9.4-33.8h9L769.8,132.2z"/>
</g>
<path class="st0" d="M228,170.2l-7.5,0l0-19.2l5.9,0c0.7,0,1.2-0.9,1.2-2l0-81.9c0-1.1-0.5-2-1.2-2l-6.8,0l0-3.5c0-1.1-0.5-2-1.2-2
	l-0.6,0l0-38.2l-1.6,8.3l0,29.9l-0.6,0c-0.7,0-1.2,0.9-1.2,2l0,3.5l-6.8,0c-0.7,0-1.2,0.9-1.2,2l0,81.9c0,1.1,0.5,2,1.2,2l5.9,0
	l0,19.2l-7.5,0c-0.6,0-1,0.8-1,1.7l0,6.3c0,1,0.5,1.7,1,1.7l8.7,0l4.5,0l8.7,0c0.6,0,1-0.8,1-1.7l0-6.3
	C229,171,228.6,170.2,228,170.2z M215.5,119.3l0,26.9l-5.9,0c-0.5,0-1-0.9-1-2l0-72.4c0-1.1,0.4-2,1-2l5.9,0l0,44.6l8.9,0
	c0.4,0,0.7,0.5,0.7,1.2l0,2.6c0,0.6-0.3,1.2-0.7,1.2L215.5,119.3z"/>
<path class="st0" d="M96.7,95.2h-69V53.9c0,0-0.2-34.3,34.5-34.3c34.8,0,34.5,34.3,34.5,34.3V95.2z M44.4,63.7
	c0-6.3,2.4-12.4,6.8-16.9c4.8-4.9,9.1-11,1.7-11c-12.5,0-12.4,17.2-12.4,17.2V84h4V63.7z"/>
<path class="st1" d="M27.7,113.9h69v33.4c0,0,0.2,34.3-34.5,34.3c-34.8,0-34.5-34.3-34.5-34.3V113.9z M44.4,123.9h-4v24.4
	c0,0-0.1,17.2,12.4,17.2c7.4,0,3.1-6-1.7-11c-4.4-4.5-6.8-10.6-6.8-16.9V123.9z"/>
<path class="st1" d="M151.4,19.6c31.2-0.6,36.2,24.4,36.2,42.1l-25.4,2.2c0-10.6-1.7-22.9-10.3-22.9c-6.7,0.2-8.9,6.7-8.9,15.7
	c0,10.8,10.3,22.9,20.4,36c12,16.2,24.2,31.9,24.2,49c0,21.1-7.7,39.9-36,39.9c-33.3,0-37.6-22.6-37.6-46.2l25.4-2.2
	c0,13.2,1.4,27,12.2,27c7.7,0,10.5-7.5,10.5-17.5c0-10.6-11-23.3-20.9-36.7c-12.2-16.2-23.7-32.4-23.7-49.4
	C117.6,39.4,126.9,20,151.4,19.6z"/>
<path class="st0" d="M205,21.3h30.2c22.5,0,45.5,11,45.5,47.5s-23,47.7-45.5,47.7V92.7c16.3,0,19.4-5.4,19.4-23.1S251.6,45,235.3,45
	H205"/>
</svg>
